<svg width="24" height="25" viewBox="0 0 24 25" fill="none" xmlns="http://www.w3.org/2000/svg">
<path fill-rule="evenodd" clip-rule="evenodd" d="M16.6925 10.7216C18.4404 10.3084 19.741 8.73807 19.741 6.86392C19.741 4.67472 17.9663 2.90002 15.7771 2.90002C13.5879 2.90002 11.8132 4.67472 11.8132 6.86392C11.8132 8.73849 13.1145 10.3091 14.863 10.7219V16.0114C14.863 17.3079 14.4172 18.1949 13.7903 18.7649C13.1493 19.3475 12.2389 19.6704 11.204 19.6704C10.2728 19.6704 9.46776 19.0454 8.99958 18.1713C8.77004 17.7428 8.65531 17.3092 8.64555 16.9579C8.63553 16.5976 8.73347 16.4217 8.80195 16.3532C8.81011 16.3451 8.81807 16.3368 8.82585 16.3284L10.0206 15.1337C10.3778 14.7764 10.3778 14.1973 10.0206 13.84C9.66337 13.4828 9.08418 13.4828 8.72695 13.84L5.06797 17.499C4.71074 17.8562 4.71074 18.4354 5.06797 18.7927C5.4252 19.1499 6.00439 19.1499 6.36162 18.7927L7.01201 18.1423C7.10678 18.448 7.23345 18.7487 7.38686 19.0351C8.06192 20.2954 9.39096 21.4999 11.204 21.4999C12.6084 21.4999 13.9849 21.0605 15.0209 20.1186C16.071 19.1639 16.6925 17.7641 16.6925 16.0114V10.7216ZM17.9115 6.86392C17.9115 8.04272 16.9559 8.99832 15.7771 8.99832C14.5983 8.99832 13.6427 8.04272 13.6427 6.86392C13.6427 5.68512 14.5983 4.72951 15.7771 4.72951C16.9559 4.72951 17.9115 5.68512 17.9115 6.86392Z" fill="#2D2D2D"/>
</svg>
