<svg width="531" height="520" viewBox="0 0 531 520" fill="none" xmlns="http://www.w3.org/2000/svg">
<path d="M442.145 173V163.545H445.339C446.078 163.545 446.684 163.672 447.158 163.924C447.632 164.173 447.983 164.516 448.211 164.953C448.439 165.391 448.553 165.888 448.553 166.445C448.553 167.002 448.439 167.496 448.211 167.926C447.983 168.357 447.634 168.696 447.163 168.942C446.692 169.185 446.09 169.307 445.358 169.307H442.773V168.273H445.321C445.826 168.273 446.232 168.199 446.54 168.051C446.851 167.903 447.075 167.694 447.214 167.423C447.355 167.149 447.426 166.823 447.426 166.445C447.426 166.066 447.355 165.735 447.214 165.452C447.072 165.169 446.846 164.95 446.535 164.797C446.224 164.64 445.813 164.561 445.303 164.561H443.29V173H442.145ZM446.595 168.753L448.922 173H447.592L445.303 168.753H446.595ZM453.209 173.148C452.526 173.148 451.937 172.997 451.441 172.695C450.949 172.391 450.569 171.966 450.301 171.421C450.036 170.873 449.904 170.236 449.904 169.51C449.904 168.784 450.036 168.143 450.301 167.589C450.569 167.032 450.941 166.598 451.418 166.288C451.898 165.974 452.458 165.817 453.099 165.817C453.468 165.817 453.833 165.878 454.193 166.001C454.553 166.125 454.881 166.325 455.176 166.602C455.472 166.875 455.707 167.239 455.882 167.691C456.058 168.143 456.146 168.701 456.146 169.362V169.824H450.68V168.882H455.038C455.038 168.482 454.958 168.125 454.797 167.811C454.641 167.497 454.416 167.249 454.123 167.068C453.834 166.886 453.493 166.795 453.099 166.795C452.665 166.795 452.289 166.903 451.972 167.119C451.658 167.331 451.417 167.608 451.247 167.95C451.078 168.291 450.994 168.657 450.994 169.048V169.676C450.994 170.212 451.086 170.666 451.271 171.038C451.458 171.407 451.718 171.689 452.051 171.883C452.383 172.074 452.769 172.169 453.209 172.169C453.496 172.169 453.754 172.129 453.985 172.049C454.219 171.966 454.42 171.843 454.59 171.68C454.759 171.513 454.89 171.307 454.982 171.061L456.035 171.357C455.924 171.714 455.738 172.027 455.476 172.298C455.215 172.566 454.891 172.775 454.507 172.926C454.122 173.074 453.69 173.148 453.209 173.148ZM457.803 173V165.909H458.855V167.017H458.948C459.095 166.638 459.334 166.345 459.663 166.135C459.993 165.923 460.388 165.817 460.85 165.817C461.318 165.817 461.707 165.923 462.018 166.135C462.332 166.345 462.576 166.638 462.752 167.017H462.826C463.007 166.651 463.28 166.36 463.643 166.145C464.006 165.926 464.441 165.817 464.949 165.817C465.583 165.817 466.102 166.015 466.505 166.412C466.908 166.806 467.11 167.42 467.11 168.254V173H466.02V168.254C466.02 167.731 465.877 167.357 465.591 167.132C465.305 166.908 464.968 166.795 464.58 166.795C464.081 166.795 463.695 166.946 463.421 167.248C463.147 167.546 463.01 167.925 463.01 168.384V173H461.902V168.143C461.902 167.74 461.771 167.416 461.51 167.169C461.248 166.92 460.911 166.795 460.499 166.795C460.216 166.795 459.951 166.871 459.705 167.022C459.462 167.172 459.265 167.382 459.114 167.65C458.966 167.914 458.892 168.22 458.892 168.568V173H457.803ZM472.075 173.148C471.391 173.148 470.802 172.997 470.307 172.695C469.814 172.391 469.434 171.966 469.166 171.421C468.902 170.873 468.769 170.236 468.769 169.51C468.769 168.784 468.902 168.143 469.166 167.589C469.434 167.032 469.806 166.598 470.283 166.288C470.764 165.974 471.324 165.817 471.964 165.817C472.333 165.817 472.698 165.878 473.058 166.001C473.418 166.125 473.746 166.325 474.041 166.602C474.337 166.875 474.572 167.239 474.748 167.691C474.923 168.143 475.011 168.701 475.011 169.362V169.824H469.545V168.882H473.903C473.903 168.482 473.823 168.125 473.663 167.811C473.506 167.497 473.281 167.249 472.989 167.068C472.699 166.886 472.358 166.795 471.964 166.795C471.53 166.795 471.154 166.903 470.837 167.119C470.524 167.331 470.282 167.608 470.113 167.95C469.943 168.291 469.859 168.657 469.859 169.048V169.676C469.859 170.212 469.951 170.666 470.136 171.038C470.323 171.407 470.584 171.689 470.916 171.883C471.248 172.074 471.635 172.169 472.075 172.169C472.361 172.169 472.619 172.129 472.85 172.049C473.084 171.966 473.286 171.843 473.455 171.68C473.624 171.513 473.755 171.307 473.847 171.061L474.9 171.357C474.789 171.714 474.603 172.027 474.341 172.298C474.08 172.566 473.757 172.775 473.372 172.926C472.987 173.074 472.555 173.148 472.075 173.148ZM476.668 173V165.909H477.721V167.017H477.813C477.961 166.638 478.199 166.345 478.528 166.135C478.858 165.923 479.253 165.817 479.715 165.817C480.183 165.817 480.572 165.923 480.883 166.135C481.197 166.345 481.441 166.638 481.617 167.017H481.691C481.872 166.651 482.145 166.36 482.508 166.145C482.871 165.926 483.307 165.817 483.814 165.817C484.448 165.817 484.967 166.015 485.37 166.412C485.773 166.806 485.975 167.42 485.975 168.254V173H484.885V168.254C484.885 167.731 484.742 167.357 484.456 167.132C484.17 166.908 483.833 166.795 483.445 166.795C482.946 166.795 482.56 166.946 482.286 167.248C482.012 167.546 481.875 167.925 481.875 168.384V173H480.767V168.143C480.767 167.74 480.637 167.416 480.375 167.169C480.113 166.92 479.776 166.795 479.364 166.795C479.081 166.795 478.816 166.871 478.57 167.022C478.327 167.172 478.13 167.382 477.979 167.65C477.831 167.914 477.758 168.22 477.758 168.568V173H476.668ZM488.115 173V163.545H489.204V167.036H489.296C489.376 166.912 489.487 166.755 489.629 166.565C489.773 166.371 489.98 166.198 490.247 166.048C490.518 165.894 490.884 165.817 491.346 165.817C491.943 165.817 492.469 165.966 492.925 166.265C493.38 166.563 493.736 166.986 493.991 167.534C494.247 168.082 494.375 168.728 494.375 169.473C494.375 170.224 494.247 170.875 493.991 171.426C493.736 171.974 493.382 172.398 492.93 172.7C492.477 172.998 491.956 173.148 491.365 173.148C490.909 173.148 490.544 173.072 490.271 172.922C489.997 172.768 489.786 172.594 489.638 172.4C489.49 172.203 489.376 172.04 489.296 171.911H489.167V173H488.115ZM489.186 169.455C489.186 169.99 489.264 170.462 489.421 170.872C489.578 171.278 489.807 171.597 490.109 171.827C490.411 172.055 490.78 172.169 491.217 172.169C491.672 172.169 492.052 172.049 492.357 171.809C492.665 171.566 492.896 171.24 493.05 170.83C493.207 170.418 493.285 169.959 493.285 169.455C493.285 168.956 493.208 168.507 493.054 168.107C492.903 167.703 492.674 167.385 492.366 167.151C492.062 166.914 491.679 166.795 491.217 166.795C490.774 166.795 490.401 166.908 490.1 167.132C489.798 167.354 489.57 167.665 489.416 168.065C489.263 168.462 489.186 168.925 489.186 169.455ZM499.014 173.148C498.331 173.148 497.742 172.997 497.246 172.695C496.754 172.391 496.373 171.966 496.106 171.421C495.841 170.873 495.709 170.236 495.709 169.51C495.709 168.784 495.841 168.143 496.106 167.589C496.373 167.032 496.746 166.598 497.223 166.288C497.703 165.974 498.263 165.817 498.903 165.817C499.273 165.817 499.637 165.878 499.997 166.001C500.358 166.125 500.685 166.325 500.981 166.602C501.276 166.875 501.512 167.239 501.687 167.691C501.862 168.143 501.95 168.701 501.95 169.362V169.824H496.484V168.882H500.842C500.842 168.482 500.762 168.125 500.602 167.811C500.445 167.497 500.221 167.249 499.928 167.068C499.639 166.886 499.297 166.795 498.903 166.795C498.469 166.795 498.094 166.903 497.777 167.119C497.463 167.331 497.221 167.608 497.052 167.95C496.883 168.291 496.798 168.657 496.798 169.048V169.676C496.798 170.212 496.891 170.666 497.075 171.038C497.263 171.407 497.523 171.689 497.855 171.883C498.188 172.074 498.574 172.169 499.014 172.169C499.3 172.169 499.559 172.129 499.79 172.049C500.024 171.966 500.225 171.843 500.394 171.68C500.564 171.513 500.695 171.307 500.787 171.061L501.839 171.357C501.729 171.714 501.542 172.027 501.281 172.298C501.019 172.566 500.696 172.775 500.311 172.926C499.927 173.074 499.494 173.148 499.014 173.148ZM503.608 173V165.909H504.66V166.98H504.734C504.863 166.629 505.097 166.345 505.436 166.126C505.774 165.908 506.156 165.798 506.581 165.798C506.661 165.798 506.761 165.8 506.881 165.803C507.001 165.806 507.091 165.811 507.153 165.817V166.925C507.116 166.915 507.031 166.902 506.899 166.883C506.77 166.862 506.633 166.851 506.488 166.851C506.143 166.851 505.836 166.923 505.565 167.068C505.297 167.209 505.085 167.406 504.928 167.659C504.774 167.908 504.697 168.193 504.697 168.513V173H503.608ZM512.101 173V165.909H513.153V167.017H513.246C513.393 166.638 513.632 166.345 513.961 166.135C514.29 165.923 514.686 165.817 515.148 165.817C515.615 165.817 516.005 165.923 516.316 166.135C516.629 166.345 516.874 166.638 517.05 167.017H517.123C517.305 166.651 517.577 166.36 517.941 166.145C518.304 165.926 518.739 165.817 519.247 165.817C519.881 165.817 520.4 166.015 520.803 166.412C521.206 166.806 521.407 167.42 521.407 168.254V173H520.318V168.254C520.318 167.731 520.175 167.357 519.889 167.132C519.602 166.908 519.265 166.795 518.878 166.795C518.379 166.795 517.993 166.946 517.719 167.248C517.445 167.546 517.308 167.925 517.308 168.384V173H516.2V168.143C516.2 167.74 516.069 167.416 515.808 167.169C515.546 166.92 515.209 166.795 514.797 166.795C514.514 166.795 514.249 166.871 514.003 167.022C513.76 167.172 513.563 167.382 513.412 167.65C513.264 167.914 513.19 168.22 513.19 168.568V173H512.101ZM526.373 173.148C525.689 173.148 525.1 172.997 524.604 172.695C524.112 172.391 523.732 171.966 523.464 171.421C523.199 170.873 523.067 170.236 523.067 169.51C523.067 168.784 523.199 168.143 523.464 167.589C523.732 167.032 524.104 166.598 524.581 166.288C525.061 165.974 525.622 165.817 526.262 165.817C526.631 165.817 526.996 165.878 527.356 166.001C527.716 166.125 528.044 166.325 528.339 166.602C528.635 166.875 528.87 167.239 529.045 167.691C529.221 168.143 529.309 168.701 529.309 169.362V169.824H523.843V168.882H528.201C528.201 168.482 528.121 168.125 527.961 167.811C527.804 167.497 527.579 167.249 527.287 167.068C526.997 166.886 526.656 166.795 526.262 166.795C525.828 166.795 525.452 166.903 525.135 167.119C524.821 167.331 524.58 167.608 524.411 167.95C524.241 168.291 524.157 168.657 524.157 169.048V169.676C524.157 170.212 524.249 170.666 524.434 171.038C524.621 171.407 524.881 171.689 525.214 171.883C525.546 172.074 525.932 172.169 526.373 172.169C526.659 172.169 526.917 172.129 527.148 172.049C527.382 171.966 527.584 171.843 527.753 171.68C527.922 171.513 528.053 171.307 528.145 171.061L529.198 171.357C529.087 171.714 528.901 172.027 528.639 172.298C528.378 172.566 528.054 172.775 527.67 172.926C527.285 173.074 526.853 173.148 526.373 173.148Z" fill="white"/>
<rect x="1" y="1" width="399" height="414" rx="3.11268" fill="white" stroke="black" stroke-width="2"/>
<path d="M78.6215 260.069C95.7511 259.513 112.195 253.709 129.608 255.521C140.426 256.647 141.031 272.795 154.397 268.904C168.676 264.748 178.068 255.303 195.097 259.212C206.863 261.913 216.639 265.141 229.296 265.326C245.841 265.566 262.655 263.789 279.084 262.753" stroke="black" stroke-width="2" stroke-linecap="round"/>
<path d="M56.6442 68.8065C74.6117 68.8065 106.62 56.122 118.831 70.3349C123.935 76.275 130.987 91.3667 143.826 83.6434C156.952 75.7472 168.643 66.1913 186.27 63.5129C198.973 61.5827 206.104 65.2664 217.065 69.4402C230.52 74.5634 245.572 77.1014 260.539 74.5474C270.235 72.8928 279.822 68.3126 289.289 72.8699C300.44 78.2374 317.094 76.1877 329.68 76.1877" stroke="black" stroke-width="2" stroke-linecap="round"/>
<path d="M65.9982 171.884C60.7933 171.884 76.4138 171.957 81.6118 171.755C93.292 171.301 106.02 169.843 116.573 165.773C121.355 163.928 125.355 160.458 126.162 156.381C126.884 152.729 121.926 153.762 118.567 154.644C112.489 156.239 98.048 161.981 108.002 166.802C115.059 170.22 123.078 172.021 131.38 172.688C144.274 173.723 153.175 169.538 161.462 162.492C162.211 161.855 166.994 156.565 168.505 157.796C170.027 159.035 170.495 160.918 171.56 162.363C173.672 165.232 177.393 166.4 181.53 166.866C186.404 167.415 191.587 167.328 196.465 166.866C201.901 166.351 206.588 164.443 211.867 163.585C221.595 162.005 228.94 166.618 238.257 167.349C248.228 168.131 253.868 163.455 261.041 159.211C266.763 155.826 268.961 157.23 273.473 161.012C280.819 167.171 293.272 169.018 303.597 166.77C309.642 165.453 315.034 162.98 320.695 160.98C327.763 158.483 334.092 157.951 341.697 157.41" stroke="black" stroke-width="2" stroke-linecap="round"/>
<path d="M68.8166 352.053C63.6383 352.053 79.179 352.126 84.3505 351.924C95.9711 351.47 108.634 350.012 119.133 345.942C123.891 344.097 127.87 340.627 128.673 336.55C129.392 332.898 124.46 333.931 121.117 334.813C115.07 336.408 100.703 342.15 110.606 346.971C117.627 350.389 125.605 352.19 133.865 352.857C146.694 353.892 155.549 349.707 163.793 342.661C164.538 342.024 169.297 336.734 170.8 337.965C172.314 339.204 172.781 341.087 173.84 342.532C175.941 345.401 179.643 346.569 183.759 347.035C188.608 347.584 193.765 347.497 198.618 347.035C204.026 346.52 208.689 344.612 213.941 343.755C223.619 342.174 230.927 346.787 240.197 347.518C250.116 348.3 255.728 343.624 262.864 339.38C268.557 335.995 270.744 337.4 275.232 341.181C282.541 347.34 294.931 349.187 305.203 346.939C311.218 345.622 316.582 343.149 322.214 341.149C329.246 338.652 335.543 338.12 343.109 337.579" stroke="black" stroke-width="2" stroke-linecap="round"/>
<path d="M258.1 501.74C254.254 503.51 250.307 499.486 252.151 495.675L268.553 461.779L292.622 485.848L258.1 501.74Z" fill="white"/>
<path d="M494.294 236.035C500.941 229.388 511.717 229.388 518.364 236.035C525.01 242.681 525.01 253.458 518.364 260.104L292.621 485.847L268.552 461.777L494.294 236.035Z" fill="white"/>
<path d="M255.668 498.205L269.368 468.983L284.891 484.505L255.668 498.205Z" fill="#2A1E36"/>
<path fill-rule="evenodd" clip-rule="evenodd" d="M514.097 256.437C514.129 256.406 514.161 256.374 514.193 256.342C518.536 251.999 518.536 244.957 514.193 240.614C509.85 236.271 502.808 236.271 498.465 240.614C498.433 240.646 498.401 240.678 498.37 240.71L514.097 256.437Z" fill="#2A1E36"/>
<rect x="493.566" y="244.786" width="4.12598" height="312.543" transform="rotate(45 493.566 244.786)" fill="black"/>
<rect x="506.696" y="257.916" width="4.12598" height="312.543" transform="rotate(45 506.696 257.916)" fill="black"/>
<rect x="499.399" y="250.621" width="6.18897" height="312.543" transform="rotate(45 499.399 250.621)" fill="black"/>
</svg>
