<?xml version="1.0" standalone="no"?>
<!DOCTYPE svg PUBLIC "-//W3C//DTD SVG 20010904//EN"
 "http://www.w3.org/TR/2001/REC-SVG-20010904/DTD/svg10.dtd">
<svg version="1.0" xmlns="http://www.w3.org/2000/svg"
 width="253.000000pt" height="200.000000pt" viewBox="0 0 253.000000 200.000000"
 preserveAspectRatio="xMidYMid meet">

<g transform="translate(0.000000,200.000000) scale(0.100000,-0.100000)"
fill="#000000" stroke="none">
<path d="M1250 1445 l0 -435 -435 0 c-283 0 -435 -3 -435 -10 0 -7 152 -10
435 -10 l435 0 0 -435 c0 -380 2 -435 15 -435 13 0 15 55 15 435 l0 435 435 0
c283 0 435 3 435 10 0 7 -152 10 -435 10 l-435 0 0 435 c0 380 -2 435 -15 435
-13 0 -15 -55 -15 -435z"/>
</g>
</svg>
