<svg width="24" height="24" viewBox="0 0 24 24" fill="none" xmlns="http://www.w3.org/2000/svg">
<path d="M19.1429 2H4.85759C3.27946 2 2.00038 3.27902 2.00029 4.85714L2 19.1027C1.99991 20.7188 3.27902 22 4.85714 22H15.2188C16.3554 22 17.4455 21.5482 18.2496 20.7446L20.7442 18.2496C21.5491 17.4062 22 16.3571 22 15.2188V4.85714C22 3.28571 20.7143 2 19.1429 2ZM4.35223 19.6473C4.27411 19.5714 4.14286 19.4018 4.14286 19.1429L4.14373 4.89732C4.14375 4.46339 4.46429 4.14286 4.85804 4.14286H19.1429C19.5301 4.14286 19.8571 4.47 19.8571 4.85714V13.4286H15.9286C14.5491 13.4286 13.4286 14.5491 13.4286 15.9286V19.8571H4.85714C4.59955 19.8571 4.43036 19.7277 4.35223 19.6473ZM16.7366 19.2277C16.4152 19.5491 16.0089 19.75 15.5714 19.8214V15.9286C15.5714 15.7319 15.7319 15.5714 15.9286 15.5714H19.8228C19.7506 16.0095 19.5498 16.4143 19.2295 16.7344L16.7366 19.2277Z" fill="white"/>
</svg>
