<svg width="24" height="24" viewBox="0 0 24 24" fill="none" xmlns="http://www.w3.org/2000/svg">
<path d="M13.0625 14.5C13.0625 15.0195 12.6445 15.4375 12.125 15.4375C11.6055 15.4375 11.1875 15.0195 11.1875 14.5V10.4375C11.1875 9.91797 11.6055 9.5 12.125 9.5C12.6445 9.5 13.0625 9.91797 13.0625 10.4375V14.5ZM9 2.9375C9 2.41992 9.41797 2 9.9375 2H14.3125C14.832 2 15.25 2.41992 15.25 2.9375C15.25 3.45508 14.832 3.875 14.3125 3.875H13.0625V5.80352C14.7578 6 16.2969 6.71484 17.5078 7.78906L18.6484 6.64844C19.0156 6.28516 19.6094 6.28516 19.9414 6.64844C20.3398 7.01562 20.3398 7.60938 19.9414 7.94141L18.7617 9.1875C19.6992 10.5117 20.25 12.1289 20.25 13.875C20.25 18.3633 16.6133 22 12.125 22C7.63672 22 4 18.3633 4 13.875C4 9.70312 7.1418 6.26953 11.1875 5.80352V3.875H9.9375C9.41797 3.875 9 3.45508 9 2.9375ZM12.125 20.125C15.5781 20.125 18.375 17.3281 18.375 13.875C18.375 10.4219 15.5781 7.625 12.125 7.625C8.67188 7.625 5.875 10.4219 5.875 13.875C5.875 17.3281 8.67188 20.125 12.125 20.125Z" fill="black"/>
</svg>
