<svg width="1161" height="721" viewBox="0 0 1161 721" fill="none" xmlns="http://www.w3.org/2000/svg">
<path opacity="0.25" d="M542 712.656C542 712.125 542.068 711.589 542.203 711.047C542.349 710.495 542.547 709.969 542.797 709.469C543.057 708.969 543.37 708.505 543.734 708.078C544.099 707.641 544.5 707.266 544.938 706.953C545.385 706.63 545.87 706.38 546.391 706.203C546.911 706.016 547.458 705.922 548.031 705.922C548.604 705.922 549.099 706.036 549.516 706.266C549.943 706.484 550.297 706.781 550.578 707.156C550.859 707.531 551.068 707.964 551.203 708.453C551.339 708.932 551.406 709.422 551.406 709.922C551.406 710.797 551.276 711.661 551.016 712.516C550.755 713.359 550.37 714.12 549.859 714.797C549.349 715.464 548.714 716.005 547.953 716.422C547.203 716.828 546.339 717.031 545.359 717.031C544.776 717.031 544.271 716.901 543.844 716.641C543.427 716.37 543.078 716.026 542.797 715.609C542.526 715.182 542.323 714.714 542.188 714.203C542.062 713.682 542 713.167 542 712.656ZM543.328 713C543.328 713.281 543.375 713.578 543.469 713.891C543.562 714.203 543.693 714.49 543.859 714.75C544.026 715.01 544.234 715.229 544.484 715.406C544.745 715.583 545.036 715.672 545.359 715.672C546.057 715.672 546.693 715.516 547.266 715.203C547.839 714.88 548.333 714.469 548.75 713.969C549.167 713.458 549.49 712.891 549.719 712.266C549.948 711.641 550.062 711.021 550.062 710.406C550.062 710.052 550.052 709.688 550.031 709.312C550.01 708.938 549.943 708.599 549.828 708.297C549.714 707.984 549.531 707.734 549.281 707.547C549.042 707.349 548.693 707.25 548.234 707.25C548.089 707.25 547.891 707.255 547.641 707.266C547.401 707.276 547.161 707.307 546.922 707.359C546.682 707.401 546.469 707.469 546.281 707.562C546.104 707.656 546.016 707.786 546.016 707.953C546.016 707.974 546.031 708.021 546.062 708.094C546.104 708.156 546.146 708.224 546.188 708.297C546.229 708.37 546.266 708.443 546.297 708.516C546.328 708.578 546.344 708.62 546.344 708.641C546.344 708.661 546.302 708.719 546.219 708.812C546.135 708.896 546.068 708.948 546.016 708.969C545.495 709.104 545.057 709.276 544.703 709.484C544.359 709.682 544.083 709.943 543.875 710.266C543.677 710.589 543.536 710.974 543.453 711.422C543.37 711.87 543.328 712.396 543.328 713ZM552.359 710.625C552.359 710.562 552.359 710.453 552.359 710.297C552.37 710.13 552.375 709.958 552.375 709.781C552.375 709.604 552.375 709.443 552.375 709.297C552.385 709.141 552.391 709.031 552.391 708.969C552.464 708.844 552.547 708.724 552.641 708.609C552.745 708.484 552.849 708.401 552.953 708.359C553.068 708.307 553.188 708.297 553.312 708.328C553.448 708.359 553.583 708.464 553.719 708.641V708.766V708.969C553.708 709.021 553.688 709.146 553.656 709.344C553.625 709.531 553.589 709.74 553.547 709.969C553.505 710.198 553.464 710.411 553.422 710.609C553.391 710.797 553.375 710.917 553.375 710.969C553.375 711.167 553.396 711.417 553.438 711.719C553.479 712.01 553.536 712.318 553.609 712.641C553.693 712.964 553.792 713.286 553.906 713.609C554.031 713.932 554.177 714.224 554.344 714.484C554.51 714.734 554.693 714.943 554.891 715.109C555.099 715.276 555.339 715.359 555.609 715.359C555.943 715.359 556.234 715.271 556.484 715.094C556.745 714.917 556.969 714.688 557.156 714.406C557.344 714.125 557.495 713.807 557.609 713.453C557.734 713.099 557.833 712.745 557.906 712.391C557.979 712.026 558.031 711.677 558.062 711.344C558.094 711.01 558.109 710.719 558.109 710.469C558.109 710.219 558.089 709.984 558.047 709.766C558.016 709.536 557.974 709.312 557.922 709.094C557.87 708.875 557.823 708.661 557.781 708.453C557.75 708.234 557.734 708.016 557.734 707.797C557.734 707.599 557.802 707.458 557.938 707.375C558.083 707.292 558.245 707.25 558.422 707.25C558.641 707.25 558.818 707.318 558.953 707.453C559.089 707.578 559.193 707.74 559.266 707.938C559.349 708.135 559.401 708.365 559.422 708.625C559.453 708.875 559.469 709.125 559.469 709.375C559.469 709.625 559.464 709.865 559.453 710.094C559.443 710.312 559.438 710.49 559.438 710.625C559.438 710.979 559.411 711.38 559.359 711.828C559.307 712.276 559.214 712.74 559.078 713.219C558.953 713.688 558.792 714.151 558.594 714.609C558.406 715.068 558.172 715.479 557.891 715.844C557.62 716.198 557.302 716.484 556.938 716.703C556.583 716.922 556.182 717.031 555.734 717.031C555.266 717.031 554.854 716.922 554.5 716.703C554.146 716.474 553.844 716.177 553.594 715.812C553.354 715.438 553.151 715.016 552.984 714.547C552.818 714.078 552.688 713.609 552.594 713.141C552.51 712.672 552.448 712.219 552.406 711.781C552.375 711.333 552.359 710.948 552.359 710.625ZM560.047 709.125C560.047 709.094 560.052 709.068 560.062 709.047C560.062 709.026 560.068 709 560.078 708.969C560.12 708.917 560.182 708.849 560.266 708.766C560.349 708.682 560.401 708.641 560.422 708.641H563.562C563.562 708.526 563.547 708.344 563.516 708.094C563.484 707.844 563.453 707.568 563.422 707.266C563.401 706.964 563.396 706.651 563.406 706.328C563.417 705.995 563.458 705.698 563.531 705.438C563.615 705.167 563.74 704.948 563.906 704.781C564.083 704.604 564.328 704.516 564.641 704.516C564.641 705.568 564.714 706.411 564.859 707.047C565.005 707.682 565.198 708.172 565.438 708.516C565.688 708.859 565.969 709.083 566.281 709.188C566.594 709.292 566.911 709.339 567.234 709.328C567.568 709.307 567.891 709.255 568.203 709.172C568.516 709.089 568.792 709.031 569.031 709C569.281 708.969 569.479 708.995 569.625 709.078C569.771 709.151 569.844 709.333 569.844 709.625C569.844 709.844 569.792 710 569.688 710.094C569.594 710.188 569.406 710.26 569.125 710.312C569.042 710.323 568.901 710.344 568.703 710.375C568.516 710.396 568.302 710.417 568.062 710.438C567.823 710.458 567.568 710.484 567.297 710.516C567.026 710.536 566.771 710.557 566.531 710.578C566.292 710.599 566.073 710.615 565.875 710.625C565.677 710.625 565.531 710.625 565.438 710.625C565.438 710.677 565.432 710.766 565.422 710.891C565.411 711.016 565.406 711.099 565.406 711.141C565.406 711.599 565.479 712.047 565.625 712.484C565.771 712.911 565.927 713.339 566.094 713.766C566.271 714.193 566.432 714.62 566.578 715.047C566.724 715.474 566.797 715.917 566.797 716.375C566.797 716.458 566.786 716.547 566.766 716.641C566.755 716.724 566.724 716.802 566.672 716.875C566.63 716.938 566.562 716.984 566.469 717.016C566.385 717.057 566.266 717.052 566.109 717C565.714 716.896 565.417 716.672 565.219 716.328C565.031 715.984 564.891 715.578 564.797 715.109C564.703 714.63 564.641 714.125 564.609 713.594C564.578 713.062 564.526 712.568 564.453 712.109C564.391 711.641 564.286 711.245 564.141 710.922C563.995 710.589 563.76 710.385 563.438 710.312L560.422 709.625C560.38 709.625 560.318 709.583 560.234 709.5C560.151 709.406 560.099 709.339 560.078 709.297C560.068 709.276 560.062 709.25 560.062 709.219C560.052 709.198 560.047 709.167 560.047 709.125ZM573.438 716.297C573.604 716.182 573.802 716.036 574.031 715.859C574.271 715.672 574.51 715.474 574.75 715.266C574.99 715.057 575.214 714.839 575.422 714.609C575.63 714.38 575.792 714.161 575.906 713.953C576.031 713.734 576.094 713.531 576.094 713.344C576.094 713.156 576 713 575.812 712.875C575.479 712.875 575.115 712.891 574.719 712.922C574.323 712.943 573.927 712.953 573.531 712.953C573.135 712.943 572.75 712.906 572.375 712.844C572.01 712.781 571.682 712.667 571.391 712.5C571.099 712.333 570.865 712.099 570.688 711.797C570.521 711.484 570.438 711.089 570.438 710.609C570.438 710.047 570.542 709.542 570.75 709.094C570.969 708.635 571.255 708.234 571.609 707.891C571.964 707.536 572.359 707.229 572.797 706.969C573.245 706.698 573.693 706.469 574.141 706.281C574.411 706.354 574.661 706.484 574.891 706.672C575.12 706.859 575.318 707.068 575.484 707.297C575.411 707.526 575.266 707.703 575.047 707.828C574.839 707.953 574.594 708.062 574.312 708.156C574.042 708.25 573.755 708.349 573.453 708.453C573.151 708.557 572.875 708.698 572.625 708.875C572.385 709.042 572.182 709.266 572.016 709.547C571.849 709.818 571.766 710.177 571.766 710.625C571.766 710.958 571.849 711.203 572.016 711.359C572.182 711.516 572.401 711.625 572.672 711.688C572.943 711.74 573.25 711.76 573.594 711.75C573.938 711.729 574.286 711.703 574.641 711.672C575.005 711.641 575.359 711.625 575.703 711.625C576.047 711.615 576.354 711.656 576.625 711.75C576.896 711.833 577.109 711.974 577.266 712.172C577.432 712.37 577.516 712.661 577.516 713.047C577.516 713.214 577.458 713.427 577.344 713.688C577.24 713.948 577.094 714.229 576.906 714.531C576.729 714.823 576.516 715.115 576.266 715.406C576.026 715.698 575.771 715.964 575.5 716.203C575.24 716.432 574.974 716.625 574.703 716.781C574.443 716.927 574.198 717 573.969 717C573.75 717 573.604 716.922 573.531 716.766C573.469 716.609 573.438 716.453 573.438 716.297ZM578.797 711.141C578.797 711.078 578.797 710.979 578.797 710.844C578.807 710.698 578.812 710.547 578.812 710.391C578.823 710.234 578.828 710.083 578.828 709.938C578.839 709.792 578.844 709.688 578.844 709.625C578.958 709.458 579.104 709.323 579.281 709.219C579.469 709.115 579.656 709.031 579.844 708.969C579.875 709.531 579.964 710.13 580.109 710.766C580.255 711.401 580.411 712.042 580.578 712.688C580.745 713.323 580.891 713.953 581.016 714.578C581.151 715.203 581.219 715.786 581.219 716.328C581.219 716.797 580.979 717.031 580.5 717.031C580.208 717.031 579.964 716.911 579.766 716.672C579.568 716.432 579.406 716.13 579.281 715.766C579.167 715.391 579.073 714.979 579 714.531C578.927 714.073 578.875 713.625 578.844 713.188C578.823 712.75 578.807 712.349 578.797 711.984C578.797 711.62 578.797 711.339 578.797 711.141ZM579.016 705.281C579.214 705.365 579.38 705.5 579.516 705.688C579.651 705.875 579.708 706.047 579.688 706.203C579.677 706.349 579.562 706.453 579.344 706.516C579.125 706.568 578.76 706.505 578.25 706.328C578.25 706.047 578.302 705.802 578.406 705.594C578.521 705.385 578.724 705.281 579.016 705.281ZM581.484 715.156C581.484 714.552 581.635 714.016 581.938 713.547C582.24 713.078 582.615 712.672 583.062 712.328C583.51 711.974 583.995 711.677 584.516 711.438C585.036 711.188 585.521 710.984 585.969 710.828C586.417 710.661 586.792 710.531 587.094 710.438C587.396 710.333 587.547 710.25 587.547 710.188C587.547 709.823 587.526 709.469 587.484 709.125C587.453 708.771 587.417 708.417 587.375 708.062C587.333 707.708 587.292 707.359 587.25 707.016C587.219 706.661 587.203 706.312 587.203 705.969V704.953C587.63 704.797 587.932 704.812 588.109 705C588.297 705.188 588.328 705.51 588.203 705.969C588.245 706.198 588.302 706.557 588.375 707.047C588.448 707.536 588.526 708.089 588.609 708.703C588.703 709.318 588.797 709.964 588.891 710.641C588.995 711.318 589.089 711.969 589.172 712.594C589.266 713.208 589.344 713.76 589.406 714.25C589.469 714.729 589.516 715.089 589.547 715.328C589.557 715.38 589.568 715.484 589.578 715.641C589.589 715.786 589.594 715.948 589.594 716.125C589.604 716.292 589.609 716.448 589.609 716.594C589.62 716.74 589.625 716.844 589.625 716.906C589.229 716.906 588.958 716.891 588.812 716.859C588.677 716.828 588.589 716.766 588.547 716.672C588.516 716.578 588.5 716.443 588.5 716.266C588.5 716.089 588.448 715.844 588.344 715.531C587.958 715.833 587.594 716.083 587.25 716.281C586.906 716.479 586.562 716.641 586.219 716.766C585.875 716.88 585.526 716.958 585.172 717C584.828 717.052 584.458 717.078 584.062 717.078C583.729 717.078 583.406 717.052 583.094 717C582.792 716.938 582.521 716.833 582.281 716.688C582.042 716.542 581.849 716.344 581.703 716.094C581.557 715.844 581.484 715.531 581.484 715.156ZM582.844 714.828C582.844 714.995 582.88 715.13 582.953 715.234C583.026 715.339 583.12 715.427 583.234 715.5C583.349 715.573 583.469 715.625 583.594 715.656C583.729 715.677 583.859 715.688 583.984 715.688C584.349 715.688 584.74 715.62 585.156 715.484C585.583 715.339 585.974 715.141 586.328 714.891C586.693 714.63 586.99 714.323 587.219 713.969C587.458 713.615 587.578 713.229 587.578 712.812C587.578 712.49 587.521 712.266 587.406 712.141C587.292 712.016 587.073 711.953 586.75 711.953C586.417 711.953 586.026 712.031 585.578 712.188C585.141 712.344 584.714 712.552 584.297 712.812C583.891 713.073 583.547 713.38 583.266 713.734C582.984 714.078 582.844 714.443 582.844 714.828ZM590.547 712.656C590.547 712.094 590.615 711.531 590.75 710.969C590.885 710.406 591.099 709.901 591.391 709.453C591.693 709.005 592.078 708.641 592.547 708.359C593.026 708.078 593.604 707.938 594.281 707.938C594.667 707.938 595.005 708.01 595.297 708.156C595.589 708.292 595.833 708.474 596.031 708.703C596.229 708.932 596.375 709.203 596.469 709.516C596.573 709.818 596.625 710.135 596.625 710.469C596.625 711 596.5 711.516 596.25 712.016C596.01 712.516 595.682 712.958 595.266 713.344C594.859 713.719 594.391 714.005 593.859 714.203C593.328 714.391 592.786 714.432 592.234 714.328C592.245 714.63 592.344 714.875 592.531 715.062C592.729 715.24 592.964 715.375 593.234 715.469C593.505 715.562 593.786 715.625 594.078 715.656C594.37 715.677 594.63 715.688 594.859 715.688C595.099 715.688 595.323 715.667 595.531 715.625C595.74 715.583 595.948 715.536 596.156 715.484C596.365 715.432 596.573 715.385 596.781 715.344C597 715.302 597.229 715.281 597.469 715.281C597.562 715.281 597.656 715.286 597.75 715.297C597.844 715.307 597.932 715.333 598.016 715.375C598.099 715.406 598.167 715.464 598.219 715.547C598.271 715.62 598.297 715.714 598.297 715.828C598.297 716.026 598.224 716.193 598.078 716.328C597.932 716.453 597.745 716.562 597.516 716.656C597.297 716.75 597.052 716.823 596.781 716.875C596.51 716.917 596.245 716.953 595.984 716.984C595.734 717.005 595.5 717.016 595.281 717.016C595.073 717.026 594.917 717.031 594.812 717.031C594.146 717.031 593.547 716.927 593.016 716.719C592.484 716.5 592.036 716.203 591.672 715.828C591.307 715.443 591.026 714.984 590.828 714.453C590.641 713.911 590.547 713.312 590.547 712.656ZM592.203 711.641C592.203 712.005 592.25 712.271 592.344 712.438C592.448 712.604 592.693 712.688 593.078 712.688C593.349 712.688 593.615 712.641 593.875 712.547C594.135 712.443 594.37 712.302 594.578 712.125C594.797 711.948 594.969 711.74 595.094 711.5C595.219 711.26 595.281 711 595.281 710.719C595.281 710.562 595.266 710.401 595.234 710.234C595.214 710.068 595.161 709.917 595.078 709.781C594.995 709.635 594.885 709.521 594.75 709.438C594.625 709.344 594.458 709.297 594.25 709.297C593.938 709.297 593.651 709.37 593.391 709.516C593.141 709.651 592.927 709.833 592.75 710.062C592.573 710.281 592.438 710.531 592.344 710.812C592.25 711.083 592.203 711.359 592.203 711.641Z" fill="black"/>
<circle cx="574.564" cy="362.485" r="41.5206" fill="white"/>
<path d="M574.564 378.056C580.597 378.056 584.814 375.217 587.279 372.557C588.723 370.984 591.188 370.871 592.778 372.33C594.351 373.79 594.448 376.255 592.988 377.829C589.436 381.705 583.273 385.841 574.564 385.841C565.854 385.841 559.691 381.705 556.139 377.829C554.679 376.255 554.63 373.79 556.35 372.33C557.939 370.871 560.404 370.984 561.848 372.557C564.313 375.217 568.53 378.056 574.564 378.056ZM566.843 354.7C566.843 357.571 564.508 359.89 561.653 359.89C558.783 359.89 556.463 357.571 556.463 354.7C556.463 351.83 558.783 349.51 561.653 349.51C564.508 349.51 566.843 351.83 566.843 354.7ZM582.414 354.7C582.414 351.83 584.733 349.51 587.604 349.51C590.458 349.51 592.794 351.83 592.794 354.7C592.794 357.571 590.458 359.89 587.604 359.89C584.733 359.89 582.414 357.571 582.414 354.7ZM616.084 362.485C616.084 385.419 597.497 404.006 574.564 404.006C551.63 404.006 533.043 385.419 533.043 362.485C533.043 339.552 551.63 320.965 574.564 320.965C597.497 320.965 616.084 339.552 616.084 362.485ZM574.564 328.75C555.928 328.75 540.828 343.85 540.828 362.485C540.828 381.121 555.928 396.221 574.564 396.221C593.199 396.221 608.299 381.121 608.299 362.485C608.299 343.85 593.199 328.75 574.564 328.75Z" fill="#2D2D2D"/>
<path d="M1118.18 64.9179L1118.94 65.7187L1119.76 64.9193C1122.05 62.7405 1125.22 61.7489 1128.34 62.2553C1133.05 63.0214 1136.5 67 1136.5 71.6645V72.0516C1136.5 74.8209 1135.32 77.4702 1133.25 79.3587L1120.89 90.6163C1120.38 91.0835 1119.7 91.3437 1119 91.3437C1118.3 91.3437 1117.62 91.0835 1117.11 90.6163L1104.75 79.3587C1102.68 77.4702 1101.5 74.8209 1101.5 72.0516V71.6645C1101.5 67 1104.95 63.0214 1109.66 62.2553C1112.72 61.7489 1115.95 62.7405 1118.18 64.9179C1118.18 64.9186 1118.12 64.9179 1118.18 64.9179ZM1118.94 70.2498L1115.86 67.1268C1114.38 65.7374 1112.27 65.0781 1110.2 65.4144C1107.07 65.9236 1104.78 68.5682 1104.78 71.6645V72.0516C1104.78 73.9334 1105.58 75.7352 1106.99 77.0164L1119 87.9604L1131.01 77.0164C1132.42 75.7352 1133.22 73.9334 1133.22 72.0516V71.6645C1133.22 68.5682 1130.92 65.9236 1127.8 65.4144C1125.73 65.0781 1123.62 65.7374 1122.14 67.1268L1118.94 70.2498Z" fill="#2D2D2D"/>
<path d="M18.1921 670.24C18.1921 666.056 21.5778 662.671 25.761 662.671C29.9441 662.671 33.3298 666.056 33.3298 670.24C33.3298 674.423 29.9441 677.808 25.761 677.808C21.5778 677.808 18.1921 674.423 18.1921 670.24ZM25.761 665.914C23.3754 665.914 21.4359 667.854 21.4359 670.24C21.4359 672.625 23.3754 674.565 25.761 674.565C28.1465 674.565 30.086 672.625 30.086 670.24C30.086 667.854 28.1465 665.914 25.761 665.914ZM32.9852 655.157L33.688 657.264H38.7362C41.1217 657.264 43.0612 659.204 43.0612 661.589V678.89C43.0612 681.275 41.1217 683.215 38.7362 683.215H12.7858C10.3968 683.215 8.46069 681.275 8.46069 678.89V661.589C8.46069 659.204 10.3968 657.264 12.7858 657.264H17.8339L18.5367 655.157C18.976 653.833 20.2127 652.939 21.6116 652.939H29.9103C31.3092 652.939 32.5459 653.833 32.9852 655.157ZM12.7858 660.508C12.1884 660.508 11.7045 660.995 11.7045 661.589V678.89C11.7045 679.484 12.1884 679.971 12.7858 679.971H38.7362C39.3309 679.971 39.8174 679.484 39.8174 678.89V661.589C39.8174 660.995 39.3309 660.508 38.7362 660.508H31.3498L29.9103 656.183H21.6116L20.1722 660.508H12.7858Z" fill="#2D2D2D"/>
<path d="M1111.19 670.24C1111.19 666.056 1114.58 662.671 1118.76 662.671C1122.94 662.671 1126.33 666.056 1126.33 670.24C1126.33 674.423 1122.94 677.808 1118.76 677.808C1114.58 677.808 1111.19 674.423 1111.19 670.24ZM1118.76 665.914C1116.37 665.914 1114.44 667.854 1114.44 670.24C1114.44 672.625 1116.37 674.565 1118.76 674.565C1121.15 674.565 1123.09 672.625 1123.09 670.24C1123.09 667.854 1121.15 665.914 1118.76 665.914ZM1125.98 655.157L1126.69 657.264H1131.74C1134.12 657.264 1136.06 659.204 1136.06 661.589V678.89C1136.06 681.275 1134.12 683.215 1131.74 683.215H1105.79C1103.4 683.215 1101.46 681.275 1101.46 678.89V661.589C1101.46 659.204 1103.4 657.264 1105.79 657.264H1110.83L1111.54 655.157C1111.98 653.833 1113.21 652.939 1114.61 652.939H1122.91C1124.31 652.939 1125.55 653.833 1125.98 655.157ZM1105.79 660.508C1105.19 660.508 1104.7 660.995 1104.7 661.589V678.89C1104.7 679.484 1105.19 679.971 1105.79 679.971H1131.74C1132.33 679.971 1132.82 679.484 1132.82 678.89V661.589C1132.82 660.995 1132.33 660.508 1131.74 660.508H1124.35L1122.91 656.183H1114.61L1113.17 660.508H1105.79Z" fill="#2D2D2D"/>
<path d="M502.318 363.73L28.1526 363.73" stroke="#2D2D2D" stroke-width="2" stroke-linecap="round"/>
<path d="M573.318 45.2676L573.318 291.07" stroke="#2D2D2D" stroke-width="2" stroke-linecap="round"/>
<path d="M1120.97 363.73L646.809 363.73" stroke="black" stroke-opacity="0.25" stroke-width="2" stroke-linecap="round"/>
<path d="M573.318 435.562L573.318 681.364" stroke="#2D2D2D" stroke-opacity="0.25" stroke-width="2" stroke-linecap="round"/>
<path d="M565.672 678.308C565.672 682.103 567.757 685.636 569.285 688.99C570.294 691.205 571.37 693.383 572.426 695.576C572.875 696.51 573.259 697.513 573.961 698.293C574.008 698.345 574.219 698.707 574.277 698.608C574.493 698.237 574.536 697.644 574.651 697.25C575.069 695.805 575.648 694.415 576.196 693.016C578.726 686.565 581.297 680.062 583.039 673.346" stroke="#2D2D2D" stroke-opacity="0.25" stroke-width="2" stroke-linecap="round"/>
<path d="M581.135 47.3173C581.135 43.5224 579.049 39.9886 577.522 36.6354C576.512 34.42 575.437 32.2421 574.381 30.049C573.931 29.1145 573.548 28.1123 572.845 27.3317C572.799 27.2805 572.587 26.9183 572.53 27.0167C572.313 27.388 572.27 27.9813 572.156 28.3753C571.737 29.82 571.159 31.2104 570.61 32.6087C568.08 39.0601 565.509 45.5626 563.768 52.2793" stroke="#2D2D2D" stroke-width="2" stroke-linecap="round"/>
<path d="M1120.12 372.378C1123.92 372.378 1127.45 370.293 1130.81 368.765C1133.02 367.755 1135.2 366.68 1137.39 365.624C1138.33 365.174 1139.33 364.791 1140.11 364.088C1140.16 364.042 1140.52 363.831 1140.42 363.773C1140.05 363.557 1139.46 363.513 1139.07 363.399C1137.62 362.981 1136.23 362.402 1134.83 361.853C1128.38 359.324 1121.88 356.752 1115.16 355.011" stroke="black" stroke-opacity="0.25" stroke-width="2" stroke-linecap="round"/>
<path d="M28.3173 355.011C24.5224 355.011 20.9886 357.096 17.6354 358.624C15.4199 359.633 13.2421 360.709 11.049 361.765C10.1145 362.214 9.11228 362.598 8.3317 363.3C8.28046 363.346 7.91831 363.558 8.01666 363.615C8.38799 363.832 8.9813 363.875 9.37529 363.99C10.82 364.408 12.2104 364.987 13.6087 365.535C20.0601 368.065 26.5626 370.636 33.2793 372.378" stroke="#2D2D2D" stroke-width="2" stroke-linecap="round"/>
<path d="M3.6875 326.281C3.75 326.094 3.83854 325.984 3.95312 325.953C4.07812 325.922 4.21875 325.906 4.375 325.906C4.61458 325.906 4.88021 326.068 5.17188 326.391C5.47396 326.703 5.78125 327.125 6.09375 327.656C6.40625 328.188 6.71875 328.797 7.03125 329.484C7.35417 330.172 7.66146 330.885 7.95312 331.625C8.25521 332.354 8.53646 333.083 8.79688 333.812C9.05729 334.542 9.28125 335.214 9.46875 335.828C9.66667 336.432 9.81771 336.958 9.92188 337.406C10.026 337.854 10.0781 338.161 10.0781 338.328C10.0781 338.495 10.0365 338.656 9.95312 338.812C9.88021 338.958 9.74479 339.031 9.54688 339.031C9.42188 339.031 9.3125 338.995 9.21875 338.922C9.13542 338.839 9.0625 338.74 9 338.625C8.9375 338.51 8.88021 338.396 8.82812 338.281C8.77604 338.167 8.72917 338.068 8.6875 337.984C8.64583 337.87 8.55729 337.651 8.42188 337.328C8.29688 337.005 8.16146 336.667 8.01562 336.312C7.88021 335.958 7.75 335.625 7.625 335.312C7.5 335 7.41146 334.776 7.35938 334.641C6.63021 334.516 5.89583 334.401 5.15625 334.297C4.42708 334.182 3.65625 334.073 2.84375 333.969H2.67188C2.29688 335.583 1.96354 336.859 1.67188 337.797C1.39062 338.734 1.15104 339.401 0.953125 339.797C0.765625 340.193 0.614583 340.354 0.5 340.281C0.395833 340.219 0.322917 339.984 0.28125 339.578C0.25 339.161 0.255208 338.609 0.296875 337.922C0.348958 337.234 0.4375 336.479 0.5625 335.656C0.697917 334.823 0.859375 333.953 1.04688 333.047C1.23438 332.141 1.45833 331.266 1.71875 330.422C1.98958 329.578 2.28646 328.797 2.60938 328.078C2.94271 327.349 3.30208 326.75 3.6875 326.281ZM3.3125 331.781C3.3125 332.167 3.4375 332.453 3.6875 332.641C3.9375 332.818 4.23958 332.932 4.59375 332.984C4.94792 333.036 5.31771 333.057 5.70312 333.047C6.09896 333.036 6.4375 333.031 6.71875 333.031C6.71875 332.615 6.65104 332.167 6.51562 331.688C6.38021 331.198 6.20833 330.714 6 330.234C5.79167 329.755 5.56771 329.292 5.32812 328.844C5.09896 328.385 4.88542 327.974 4.6875 327.609C4.57292 327.724 4.44792 327.938 4.3125 328.25C4.1875 328.552 4.05729 328.896 3.92188 329.281C3.79688 329.656 3.68229 330.026 3.57812 330.391C3.47396 330.755 3.39583 331.052 3.34375 331.281C3.34375 331.312 3.33854 331.396 3.32812 331.531C3.31771 331.656 3.3125 331.74 3.3125 331.781ZM10.6875 333.312C10.6875 333.135 10.724 332.974 10.7969 332.828C10.8802 332.682 11.0208 332.609 11.2188 332.609C11.2292 332.609 11.2448 332.615 11.2656 332.625C11.2865 332.625 11.3073 332.625 11.3281 332.625C11.349 332.625 11.3698 332.625 11.3906 332.625C11.4219 332.646 11.4792 332.698 11.5625 332.781C11.6562 332.865 11.7135 332.927 11.7344 332.969C11.7656 333.031 11.8281 333.167 11.9219 333.375C12.026 333.583 12.1458 333.828 12.2812 334.109C12.4271 334.38 12.5729 334.672 12.7188 334.984C12.875 335.286 13.0208 335.578 13.1562 335.859C13.3021 336.141 13.4219 336.385 13.5156 336.594C13.6198 336.792 13.6927 336.922 13.7344 336.984C13.7448 337.016 13.7917 337.078 13.875 337.172C13.9688 337.255 14.0365 337.307 14.0781 337.328C14.1615 337.182 14.2448 336.964 14.3281 336.672C14.4115 336.38 14.4948 336.062 14.5781 335.719C14.6719 335.365 14.7656 335.005 14.8594 334.641C14.9531 334.266 15.0573 333.932 15.1719 333.641C15.2969 333.339 15.4323 333.094 15.5781 332.906C15.724 332.708 15.8906 332.609 16.0781 332.609C16.349 332.609 16.6042 332.714 16.8438 332.922C17.0938 333.13 17.3281 333.401 17.5469 333.734C17.776 334.068 17.9896 334.443 18.1875 334.859C18.3958 335.266 18.5885 335.672 18.7656 336.078C18.9531 336.474 19.125 336.844 19.2812 337.188C19.4479 337.521 19.6094 337.786 19.7656 337.984C19.8906 337.943 19.9948 337.839 20.0781 337.672C20.1615 337.505 20.224 337.333 20.2656 337.156C20.3177 336.969 20.3542 336.797 20.375 336.641C20.3958 336.474 20.4115 336.365 20.4219 336.312C20.4323 336.198 20.4479 336.021 20.4688 335.781C20.4896 335.531 20.5104 335.25 20.5312 334.938C20.5625 334.625 20.5885 334.302 20.6094 333.969C20.6302 333.635 20.651 333.312 20.6719 333C20.7031 332.688 20.724 332.411 20.7344 332.172C20.7552 331.922 20.7656 331.745 20.7656 331.641C20.7865 331.641 20.8385 331.635 20.9219 331.625C21.0052 331.604 21.0625 331.594 21.0938 331.594C21.2396 331.594 21.3698 331.609 21.4844 331.641C21.599 331.672 21.6875 331.781 21.75 331.969C21.75 332.042 21.75 332.172 21.75 332.359C21.7604 332.547 21.7656 332.75 21.7656 332.969C21.776 333.177 21.7812 333.38 21.7812 333.578C21.7917 333.766 21.7969 333.896 21.7969 333.969C21.7969 334.135 21.7969 334.396 21.7969 334.75C21.8073 335.094 21.8021 335.479 21.7812 335.906C21.7708 336.333 21.7396 336.771 21.6875 337.219C21.6354 337.656 21.5521 338.062 21.4375 338.438C21.3333 338.802 21.1875 339.104 21 339.344C20.8125 339.573 20.5781 339.688 20.2969 339.688C19.974 339.688 19.6719 339.609 19.3906 339.453C19.1094 339.297 18.8438 339.089 18.5938 338.828C18.3542 338.568 18.125 338.281 17.9062 337.969C17.6875 337.646 17.4844 337.323 17.2969 337C17.1198 336.667 16.9531 336.354 16.7969 336.062C16.651 335.76 16.5208 335.505 16.4062 335.297C16.3229 335.484 16.2448 335.719 16.1719 336C16.1094 336.281 16.0365 336.589 15.9531 336.922C15.8698 337.245 15.776 337.573 15.6719 337.906C15.5677 338.229 15.4479 338.526 15.3125 338.797C15.1875 339.057 15.0365 339.271 14.8594 339.438C14.6927 339.604 14.5 339.688 14.2812 339.688C14.1771 339.688 14.0833 339.693 14 339.703C13.9167 339.703 13.8385 339.698 13.7656 339.688C13.6927 339.667 13.625 339.63 13.5625 339.578C13.5 339.526 13.4427 339.443 13.3906 339.328L10.7188 333.625C10.7188 333.615 10.7135 333.573 10.7031 333.5C10.6927 333.417 10.6875 333.354 10.6875 333.312ZM29.4844 337.984C29.0885 338.255 28.7448 338.5 28.4531 338.719C28.1719 338.927 27.8958 339.104 27.625 339.25C27.3542 339.396 27.0625 339.505 26.75 339.578C26.4479 339.651 26.0729 339.688 25.625 339.688C24.6562 339.688 23.9375 339.432 23.4688 338.922C23 338.401 22.7656 337.63 22.7656 336.609C22.7656 336.214 22.8177 335.802 22.9219 335.375C23.026 334.948 23.1771 334.526 23.375 334.109C23.5833 333.682 23.8281 333.281 24.1094 332.906C24.3906 332.521 24.7083 332.182 25.0625 331.891C25.4167 331.599 25.7917 331.37 26.1875 331.203C26.5938 331.026 27.0208 330.938 27.4688 330.938C28.2188 331.01 28.8073 331.198 29.2344 331.5C29.6615 331.792 29.9844 332.172 30.2031 332.641C30.4219 333.099 30.5729 333.615 30.6562 334.188C30.7396 334.75 30.8021 335.333 30.8438 335.938C30.8958 336.542 30.9583 337.146 31.0312 337.75C31.1042 338.354 31.2552 338.911 31.4844 339.422C31.349 339.766 31.2188 340.005 31.0938 340.141C30.9792 340.286 30.849 340.312 30.7031 340.219C30.5573 340.125 30.3854 339.896 30.1875 339.531C30 339.167 29.7656 338.651 29.4844 337.984ZM24.0938 336.641C24.0938 337.234 24.2031 337.672 24.4219 337.953C24.651 338.224 25.0521 338.359 25.625 338.359C26.0521 338.359 26.4583 338.286 26.8438 338.141C27.2396 337.984 27.5833 337.776 27.875 337.516C28.1667 337.245 28.401 336.922 28.5781 336.547C28.7552 336.172 28.8438 335.755 28.8438 335.297C28.8438 335.109 28.849 334.849 28.8594 334.516C28.8698 334.172 28.849 333.833 28.7969 333.5C28.7448 333.167 28.6458 332.88 28.5 332.641C28.3542 332.391 28.1354 332.266 27.8438 332.266C27.3021 332.266 26.8021 332.406 26.3438 332.688C25.8854 332.958 25.4896 333.307 25.1562 333.734C24.8229 334.161 24.5625 334.635 24.375 335.156C24.1875 335.667 24.0938 336.161 24.0938 336.641ZM32.2031 331.922C32.2031 331.828 32.2031 331.734 32.2031 331.641C32.2135 331.536 32.2344 331.443 32.2656 331.359C32.3073 331.266 32.3594 331.198 32.4219 331.156C32.4948 331.104 32.599 331.078 32.7344 331.078C32.7448 331.078 32.7552 331.078 32.7656 331.078C32.7865 331.078 32.8073 331.078 32.8281 331.078C32.8594 331.089 32.8854 331.094 32.9062 331.094C33.1042 331.365 33.276 331.714 33.4219 332.141C33.5677 332.557 33.7083 333.005 33.8438 333.484C33.9792 333.953 34.125 334.432 34.2812 334.922C34.4375 335.401 34.6406 335.833 34.8906 336.219C35.1406 336.604 35.4479 336.911 35.8125 337.141C36.1771 337.37 36.6302 337.469 37.1719 337.438C37.4115 337.438 37.5677 337.307 37.6406 337.047C37.7135 336.786 37.75 336.453 37.75 336.047C37.7604 335.641 37.75 335.193 37.7188 334.703C37.6979 334.214 37.6979 333.75 37.7188 333.312C37.75 332.865 37.8281 332.474 37.9531 332.141C38.0885 331.807 38.3177 331.583 38.6406 331.469C38.776 331.74 38.8854 332.167 38.9688 332.75C39.0625 333.323 39.1302 333.99 39.1719 334.75C39.2135 335.5 39.2344 336.318 39.2344 337.203C39.2344 338.078 39.2135 338.953 39.1719 339.828C39.1302 340.693 39.0677 341.526 38.9844 342.328C38.901 343.13 38.8073 343.833 38.7031 344.438C38.599 345.042 38.474 345.516 38.3281 345.859C38.1927 346.214 38.0469 346.365 37.8906 346.312C37.6719 346.104 37.5 345.833 37.375 345.5C37.2604 345.167 37.1771 344.797 37.125 344.391C37.0833 343.984 37.0677 343.552 37.0781 343.094C37.0885 342.646 37.1042 342.193 37.125 341.734C37.1562 341.276 37.1875 340.828 37.2188 340.391C37.2604 339.953 37.2812 339.552 37.2812 339.188C36.9062 339.219 36.5208 339.161 36.125 339.016C35.7396 338.87 35.3594 338.646 34.9844 338.344C34.6094 338.031 34.25 337.656 33.9062 337.219C33.5729 336.781 33.276 336.286 33.0156 335.734C32.7656 335.182 32.5677 334.589 32.4219 333.953C32.276 333.307 32.2031 332.63 32.2031 331.922Z" fill="black"/>
<path d="M551.016 15.8281C551.016 15.276 550.948 14.6771 550.812 14.0312C550.677 13.3854 550.531 12.724 550.375 12.0469C550.219 11.3698 550.068 10.6979 549.922 10.0312C549.776 9.35417 549.698 8.71875 549.688 8.125H546.203C546.203 8.04167 546.203 7.92188 546.203 7.76562C546.203 7.60938 546.219 7.45312 546.25 7.29688C546.281 7.13021 546.328 6.98438 546.391 6.85938C546.453 6.72396 546.547 6.64062 546.672 6.60938H555.266C555.255 6.94271 555.188 7.19792 555.062 7.375C554.938 7.55208 554.771 7.6875 554.562 7.78125C554.365 7.875 554.141 7.9375 553.891 7.96875C553.641 7.98958 553.391 8.01562 553.141 8.04688C552.891 8.07812 552.646 8.11979 552.406 8.17188C552.167 8.21354 551.958 8.30208 551.781 8.4375C551.615 8.57292 551.484 8.76042 551.391 9C551.307 9.22917 551.286 9.54167 551.328 9.9375C551.328 10.1562 551.344 10.4479 551.375 10.8125C551.406 11.1667 551.458 11.5521 551.531 11.9688C551.604 12.3854 551.698 12.8073 551.812 13.2344C551.927 13.651 552.068 14.0365 552.234 14.3906C552.411 14.7344 552.609 15.0156 552.828 15.2344C553.057 15.4427 553.323 15.5469 553.625 15.5469C553.833 15.5677 554.099 15.5729 554.422 15.5625C554.755 15.5417 555.089 15.526 555.422 15.5156C555.755 15.5052 556.068 15.5104 556.359 15.5312C556.661 15.5521 556.88 15.6146 557.016 15.7188C557.151 15.8229 557.182 15.9792 557.109 16.1875C557.036 16.3854 556.807 16.6562 556.422 17C555.755 17.25 555.078 17.4219 554.391 17.5156C553.714 17.599 553.031 17.6458 552.344 17.6562C551.656 17.6562 550.969 17.6458 550.281 17.625C549.594 17.5938 548.911 17.5781 548.234 17.5781C547.849 17.1094 547.62 16.75 547.547 16.5C547.474 16.25 547.5 16.0781 547.625 15.9844C547.76 15.8802 547.969 15.8281 548.25 15.8281C548.542 15.8177 548.854 15.8281 549.188 15.8594C549.521 15.8802 549.854 15.901 550.188 15.9219C550.521 15.9323 550.797 15.901 551.016 15.8281ZM558.359 12.7344C558.359 12.4635 558.427 12.2708 558.562 12.1562C558.698 12.0312 558.917 11.9688 559.219 11.9688H559.375C559.406 12.1354 559.443 12.3281 559.484 12.5469C559.526 12.7656 559.589 12.9896 559.672 13.2188C559.755 13.4479 559.854 13.6615 559.969 13.8594C560.083 14.0469 560.224 14.1979 560.391 14.3125C560.401 13.9479 560.49 13.599 560.656 13.2656C560.833 12.9219 561.047 12.6198 561.297 12.3594C561.557 12.0885 561.839 11.8646 562.141 11.6875C562.453 11.5 562.76 11.375 563.062 11.3125H563.406C563.906 11.3125 564.333 11.4271 564.688 11.6562C565.042 11.875 565.333 12.1667 565.562 12.5312C565.802 12.8854 565.984 13.2917 566.109 13.75C566.234 14.2083 566.328 14.6771 566.391 15.1562C566.464 15.625 566.505 16.0833 566.516 16.5312C566.536 16.9688 566.547 17.3438 566.547 17.6562H565.406C565.344 17.0312 565.266 16.4323 565.172 15.8594C565.141 15.6302 565.099 15.3906 565.047 15.1406C564.995 14.8802 564.938 14.6406 564.875 14.4219C564.812 14.1927 564.745 13.9844 564.672 13.7969C564.599 13.599 564.516 13.4323 564.422 13.2969C564.38 13.2552 564.323 13.1979 564.25 13.125C564.188 13.0521 564.12 12.9792 564.047 12.9062C563.974 12.8333 563.906 12.7708 563.844 12.7188C563.781 12.6667 563.745 12.6406 563.734 12.6406C563.422 12.5573 563.151 12.6198 562.922 12.8281C562.693 13.026 562.49 13.2969 562.312 13.6406C562.135 13.9844 561.99 14.375 561.875 14.8125C561.771 15.25 561.682 15.6719 561.609 16.0781C561.536 16.474 561.484 16.8229 561.453 17.125C561.422 17.4167 561.401 17.5938 561.391 17.6562C561.13 17.8438 560.885 17.901 560.656 17.8281C560.427 17.7448 560.208 17.5781 560 17.3281C559.802 17.0781 559.62 16.7656 559.453 16.3906C559.297 16.0156 559.151 15.6198 559.016 15.2031C558.88 14.776 558.755 14.349 558.641 13.9219C558.536 13.4948 558.443 13.099 558.359 12.7344ZM570.406 17.2969C570.573 17.1823 570.771 17.0365 571 16.8594C571.24 16.6719 571.479 16.474 571.719 16.2656C571.958 16.0573 572.182 15.8385 572.391 15.6094C572.599 15.3802 572.76 15.1615 572.875 14.9531C573 14.7344 573.062 14.5312 573.062 14.3438C573.062 14.1562 572.969 14 572.781 13.875C572.448 13.875 572.083 13.8906 571.688 13.9219C571.292 13.9427 570.896 13.9531 570.5 13.9531C570.104 13.9427 569.719 13.9062 569.344 13.8438C568.979 13.7812 568.651 13.6667 568.359 13.5C568.068 13.3333 567.833 13.099 567.656 12.7969C567.49 12.4844 567.406 12.0885 567.406 11.6094C567.406 11.0469 567.51 10.5417 567.719 10.0938C567.938 9.63542 568.224 9.23438 568.578 8.89062C568.932 8.53646 569.328 8.22917 569.766 7.96875C570.214 7.69792 570.661 7.46875 571.109 7.28125C571.38 7.35417 571.63 7.48438 571.859 7.67188C572.089 7.85938 572.286 8.06771 572.453 8.29688C572.38 8.52604 572.234 8.70312 572.016 8.82812C571.807 8.95312 571.562 9.0625 571.281 9.15625C571.01 9.25 570.724 9.34896 570.422 9.45312C570.12 9.55729 569.844 9.69792 569.594 9.875C569.354 10.0417 569.151 10.2656 568.984 10.5469C568.818 10.8177 568.734 11.1771 568.734 11.625C568.734 11.9583 568.818 12.2031 568.984 12.3594C569.151 12.5156 569.37 12.625 569.641 12.6875C569.911 12.7396 570.219 12.7604 570.562 12.75C570.906 12.7292 571.255 12.7031 571.609 12.6719C571.974 12.6406 572.328 12.625 572.672 12.625C573.016 12.6146 573.323 12.6562 573.594 12.75C573.865 12.8333 574.078 12.974 574.234 13.1719C574.401 13.3698 574.484 13.6615 574.484 14.0469C574.484 14.2135 574.427 14.4271 574.312 14.6875C574.208 14.9479 574.062 15.2292 573.875 15.5312C573.698 15.8229 573.484 16.1146 573.234 16.4062C572.995 16.6979 572.74 16.9635 572.469 17.2031C572.208 17.4323 571.943 17.625 571.672 17.7812C571.411 17.9271 571.167 18 570.938 18C570.719 18 570.573 17.9219 570.5 17.7656C570.438 17.6094 570.406 17.4531 570.406 17.2969ZM575.766 12.1406C575.766 12.0781 575.766 11.9792 575.766 11.8438C575.776 11.6979 575.781 11.5469 575.781 11.3906C575.792 11.2344 575.797 11.0833 575.797 10.9375C575.807 10.7917 575.812 10.6875 575.812 10.625C575.927 10.4583 576.073 10.3229 576.25 10.2188C576.438 10.1146 576.625 10.0312 576.812 9.96875C576.844 10.5312 576.932 11.1302 577.078 11.7656C577.224 12.401 577.38 13.0417 577.547 13.6875C577.714 14.3229 577.859 14.9531 577.984 15.5781C578.12 16.2031 578.188 16.7865 578.188 17.3281C578.188 17.7969 577.948 18.0312 577.469 18.0312C577.177 18.0312 576.932 17.9115 576.734 17.6719C576.536 17.4323 576.375 17.1302 576.25 16.7656C576.135 16.3906 576.042 15.9792 575.969 15.5312C575.896 15.0729 575.844 14.625 575.812 14.1875C575.792 13.75 575.776 13.349 575.766 12.9844C575.766 12.6198 575.766 12.3385 575.766 12.1406ZM575.984 6.28125C576.182 6.36458 576.349 6.5 576.484 6.6875C576.62 6.875 576.677 7.04688 576.656 7.20312C576.646 7.34896 576.531 7.45312 576.312 7.51562C576.094 7.56771 575.729 7.50521 575.219 7.32812C575.219 7.04688 575.271 6.80208 575.375 6.59375C575.49 6.38542 575.693 6.28125 575.984 6.28125ZM578.453 16.1562C578.453 15.5521 578.604 15.0156 578.906 14.5469C579.208 14.0781 579.583 13.6719 580.031 13.3281C580.479 12.974 580.964 12.6771 581.484 12.4375C582.005 12.1875 582.49 11.9844 582.938 11.8281C583.385 11.6615 583.76 11.5312 584.062 11.4375C584.365 11.3333 584.516 11.25 584.516 11.1875C584.516 10.8229 584.495 10.4688 584.453 10.125C584.422 9.77083 584.385 9.41667 584.344 9.0625C584.302 8.70833 584.26 8.35938 584.219 8.01562C584.188 7.66146 584.172 7.3125 584.172 6.96875V5.95312C584.599 5.79688 584.901 5.8125 585.078 6C585.266 6.1875 585.297 6.51042 585.172 6.96875C585.214 7.19792 585.271 7.55729 585.344 8.04688C585.417 8.53646 585.495 9.08854 585.578 9.70312C585.672 10.3177 585.766 10.9635 585.859 11.6406C585.964 12.3177 586.057 12.9688 586.141 13.5938C586.234 14.2083 586.312 14.7604 586.375 15.25C586.438 15.7292 586.484 16.0885 586.516 16.3281C586.526 16.3802 586.536 16.4844 586.547 16.6406C586.557 16.7865 586.562 16.9479 586.562 17.125C586.573 17.2917 586.578 17.4479 586.578 17.5938C586.589 17.7396 586.594 17.8438 586.594 17.9062C586.198 17.9062 585.927 17.8906 585.781 17.8594C585.646 17.8281 585.557 17.7656 585.516 17.6719C585.484 17.5781 585.469 17.4427 585.469 17.2656C585.469 17.0885 585.417 16.8438 585.312 16.5312C584.927 16.8333 584.562 17.0833 584.219 17.2812C583.875 17.4792 583.531 17.6406 583.188 17.7656C582.844 17.8802 582.495 17.9583 582.141 18C581.797 18.0521 581.427 18.0781 581.031 18.0781C580.698 18.0781 580.375 18.0521 580.062 18C579.76 17.9375 579.49 17.8333 579.25 17.6875C579.01 17.5417 578.818 17.3438 578.672 17.0938C578.526 16.8438 578.453 16.5312 578.453 16.1562ZM579.812 15.8281C579.812 15.9948 579.849 16.1302 579.922 16.2344C579.995 16.3385 580.089 16.4271 580.203 16.5C580.318 16.5729 580.438 16.625 580.562 16.6562C580.698 16.6771 580.828 16.6875 580.953 16.6875C581.318 16.6875 581.708 16.6198 582.125 16.4844C582.552 16.3385 582.943 16.1406 583.297 15.8906C583.661 15.6302 583.958 15.3229 584.188 14.9688C584.427 14.6146 584.547 14.2292 584.547 13.8125C584.547 13.4896 584.49 13.2656 584.375 13.1406C584.26 13.0156 584.042 12.9531 583.719 12.9531C583.385 12.9531 582.995 13.0312 582.547 13.1875C582.109 13.3438 581.682 13.5521 581.266 13.8125C580.859 14.0729 580.516 14.3802 580.234 14.7344C579.953 15.0781 579.812 15.4427 579.812 15.8281ZM587.516 13.6562C587.516 13.0938 587.583 12.5312 587.719 11.9688C587.854 11.4062 588.068 10.901 588.359 10.4531C588.661 10.0052 589.047 9.64062 589.516 9.35938C589.995 9.07812 590.573 8.9375 591.25 8.9375C591.635 8.9375 591.974 9.01042 592.266 9.15625C592.557 9.29167 592.802 9.47396 593 9.70312C593.198 9.93229 593.344 10.2031 593.438 10.5156C593.542 10.8177 593.594 11.1354 593.594 11.4688C593.594 12 593.469 12.5156 593.219 13.0156C592.979 13.5156 592.651 13.9583 592.234 14.3438C591.828 14.7188 591.359 15.0052 590.828 15.2031C590.297 15.3906 589.755 15.4323 589.203 15.3281C589.214 15.6302 589.312 15.875 589.5 16.0625C589.698 16.2396 589.932 16.375 590.203 16.4688C590.474 16.5625 590.755 16.625 591.047 16.6562C591.339 16.6771 591.599 16.6875 591.828 16.6875C592.068 16.6875 592.292 16.6667 592.5 16.625C592.708 16.5833 592.917 16.5365 593.125 16.4844C593.333 16.4323 593.542 16.3854 593.75 16.3438C593.969 16.3021 594.198 16.2812 594.438 16.2812C594.531 16.2812 594.625 16.2865 594.719 16.2969C594.812 16.3073 594.901 16.3333 594.984 16.375C595.068 16.4062 595.135 16.4635 595.188 16.5469C595.24 16.6198 595.266 16.7135 595.266 16.8281C595.266 17.026 595.193 17.1927 595.047 17.3281C594.901 17.4531 594.714 17.5625 594.484 17.6562C594.266 17.75 594.021 17.8229 593.75 17.875C593.479 17.9167 593.214 17.9531 592.953 17.9844C592.703 18.0052 592.469 18.0156 592.25 18.0156C592.042 18.026 591.885 18.0312 591.781 18.0312C591.115 18.0312 590.516 17.9271 589.984 17.7188C589.453 17.5 589.005 17.2031 588.641 16.8281C588.276 16.4427 587.995 15.9844 587.797 15.4531C587.609 14.9115 587.516 14.3125 587.516 13.6562ZM589.172 12.6406C589.172 13.0052 589.219 13.2708 589.312 13.4375C589.417 13.6042 589.661 13.6875 590.047 13.6875C590.318 13.6875 590.583 13.6406 590.844 13.5469C591.104 13.4427 591.339 13.3021 591.547 13.125C591.766 12.9479 591.938 12.7396 592.062 12.5C592.188 12.2604 592.25 12 592.25 11.7188C592.25 11.5625 592.234 11.401 592.203 11.2344C592.182 11.0677 592.13 10.9167 592.047 10.7812C591.964 10.6354 591.854 10.5208 591.719 10.4375C591.594 10.3438 591.427 10.2969 591.219 10.2969C590.906 10.2969 590.62 10.3698 590.359 10.5156C590.109 10.651 589.896 10.8333 589.719 11.0625C589.542 11.2812 589.406 11.5312 589.312 11.8125C589.219 12.0833 589.172 12.3594 589.172 12.6406Z" fill="black"/>
<path d="M1100.38 330.625C1100.33 330.479 1100.25 330.38 1100.12 330.328C1100.01 330.276 1099.88 330.25 1099.73 330.25C1099.6 330.24 1099.46 330.245 1099.33 330.266C1099.19 330.286 1099.09 330.297 1099.02 330.297C1098.84 330.286 1098.53 330.266 1098.09 330.234C1097.66 330.203 1097.18 330.172 1096.67 330.141C1096.17 330.099 1095.7 330.062 1095.27 330.031C1094.83 329.99 1094.52 329.964 1094.34 329.953C1094.34 329.932 1094.34 329.88 1094.33 329.797C1094.32 329.714 1094.31 329.656 1094.31 329.625C1094.31 329.479 1094.32 329.349 1094.34 329.234C1094.38 329.12 1094.48 329.031 1094.66 328.969C1095.64 328.99 1096.6 328.984 1097.55 328.953C1098.51 328.922 1099.46 328.88 1100.41 328.828C1101.36 328.766 1102.32 328.708 1103.27 328.656C1104.22 328.604 1105.19 328.578 1106.16 328.578C1106.16 328.974 1106.06 329.266 1105.88 329.453C1105.69 329.63 1105.45 329.75 1105.17 329.812C1104.9 329.875 1104.6 329.901 1104.27 329.891C1103.93 329.88 1103.61 329.885 1103.3 329.906C1102.99 329.927 1102.72 329.99 1102.48 330.094C1102.26 330.188 1102.1 330.365 1102.03 330.625C1102.02 330.688 1102.01 330.807 1102 330.984C1101.99 331.161 1101.98 331.349 1101.97 331.547C1101.97 331.745 1101.96 331.932 1101.95 332.109C1101.95 332.276 1101.95 332.396 1101.95 332.469C1101.95 333.062 1102.03 333.651 1102.17 334.234C1102.33 334.807 1102.49 335.38 1102.67 335.953C1102.86 336.516 1103.03 337.083 1103.17 337.656C1103.33 338.219 1103.41 338.792 1103.41 339.375C1103.41 339.812 1103.16 340.031 1102.66 340.031C1102.35 340.031 1102.08 339.823 1101.84 339.406C1101.61 338.99 1101.41 338.458 1101.23 337.812C1101.07 337.167 1100.93 336.464 1100.81 335.703C1100.71 334.943 1100.62 334.214 1100.55 333.516C1100.48 332.818 1100.44 332.203 1100.41 331.672C1100.39 331.141 1100.38 330.792 1100.38 330.625ZM1107.03 336.828C1107.03 336.182 1107.18 335.583 1107.48 335.031C1107.79 334.469 1108.18 333.99 1108.67 333.594C1109.17 333.188 1109.73 332.87 1110.34 332.641C1110.97 332.411 1111.6 332.297 1112.23 332.297C1112.59 332.297 1112.9 332.411 1113.17 332.641C1113.45 332.87 1113.69 333.151 1113.88 333.484C1114.06 333.807 1114.2 334.151 1114.3 334.516C1114.4 334.88 1114.45 335.198 1114.45 335.469C1114.45 336.052 1114.31 336.62 1114.03 337.172C1113.75 337.714 1113.39 338.198 1112.94 338.625C1112.49 339.042 1111.98 339.38 1111.42 339.641C1110.86 339.901 1110.3 340.031 1109.73 340.031C1109.23 340.031 1108.81 339.948 1108.47 339.781C1108.12 339.604 1107.85 339.375 1107.64 339.094C1107.43 338.802 1107.28 338.464 1107.17 338.078C1107.08 337.682 1107.03 337.266 1107.03 336.828ZM1108.36 336.984C1108.36 337.255 1108.38 337.495 1108.42 337.703C1108.47 337.901 1108.56 338.073 1108.67 338.219C1108.8 338.365 1108.96 338.479 1109.16 338.562C1109.35 338.635 1109.6 338.672 1109.89 338.672C1110.28 338.672 1110.66 338.568 1111.05 338.359C1111.43 338.141 1111.78 337.87 1112.08 337.547C1112.39 337.214 1112.64 336.849 1112.83 336.453C1113.02 336.057 1113.11 335.672 1113.11 335.297C1113.11 335.13 1113.09 334.948 1113.06 334.75C1113.03 334.552 1112.98 334.37 1112.91 334.203C1112.83 334.036 1112.73 333.896 1112.59 333.781C1112.46 333.667 1112.29 333.609 1112.08 333.609C1111.89 333.609 1111.67 333.672 1111.41 333.797C1111.16 333.922 1110.89 334.083 1110.61 334.281C1110.34 334.479 1110.07 334.703 1109.8 334.953C1109.54 335.203 1109.3 335.453 1109.08 335.703C1108.86 335.953 1108.68 336.193 1108.55 336.422C1108.42 336.651 1108.36 336.839 1108.36 336.984ZM1114.72 333.312C1114.72 333.135 1114.76 332.974 1114.83 332.828C1114.91 332.682 1115.05 332.609 1115.25 332.609C1115.26 332.609 1115.28 332.615 1115.3 332.625C1115.32 332.625 1115.34 332.625 1115.36 332.625C1115.38 332.625 1115.4 332.625 1115.42 332.625C1115.45 332.646 1115.51 332.698 1115.59 332.781C1115.69 332.865 1115.74 332.927 1115.77 332.969C1115.8 333.031 1115.86 333.167 1115.95 333.375C1116.06 333.583 1116.18 333.828 1116.31 334.109C1116.46 334.38 1116.6 334.672 1116.75 334.984C1116.91 335.286 1117.05 335.578 1117.19 335.859C1117.33 336.141 1117.45 336.385 1117.55 336.594C1117.65 336.792 1117.72 336.922 1117.77 336.984C1117.78 337.016 1117.82 337.078 1117.91 337.172C1118 337.255 1118.07 337.307 1118.11 337.328C1118.19 337.182 1118.28 336.964 1118.36 336.672C1118.44 336.38 1118.53 336.062 1118.61 335.719C1118.7 335.365 1118.8 335.005 1118.89 334.641C1118.98 334.266 1119.09 333.932 1119.2 333.641C1119.33 333.339 1119.46 333.094 1119.61 332.906C1119.76 332.708 1119.92 332.609 1120.11 332.609C1120.38 332.609 1120.64 332.714 1120.88 332.922C1121.12 333.13 1121.36 333.401 1121.58 333.734C1121.81 334.068 1122.02 334.443 1122.22 334.859C1122.43 335.266 1122.62 335.672 1122.8 336.078C1122.98 336.474 1123.16 336.844 1123.31 337.188C1123.48 337.521 1123.64 337.786 1123.8 337.984C1123.92 337.943 1124.03 337.839 1124.11 337.672C1124.19 337.505 1124.26 337.333 1124.3 337.156C1124.35 336.969 1124.39 336.797 1124.41 336.641C1124.43 336.474 1124.44 336.365 1124.45 336.312C1124.46 336.198 1124.48 336.021 1124.5 335.781C1124.52 335.531 1124.54 335.25 1124.56 334.938C1124.59 334.625 1124.62 334.302 1124.64 333.969C1124.66 333.635 1124.68 333.312 1124.7 333C1124.73 332.688 1124.76 332.411 1124.77 332.172C1124.79 331.922 1124.8 331.745 1124.8 331.641C1124.82 331.641 1124.87 331.635 1124.95 331.625C1125.04 331.604 1125.09 331.594 1125.12 331.594C1125.27 331.594 1125.4 331.609 1125.52 331.641C1125.63 331.672 1125.72 331.781 1125.78 331.969C1125.78 332.042 1125.78 332.172 1125.78 332.359C1125.79 332.547 1125.8 332.75 1125.8 332.969C1125.81 333.177 1125.81 333.38 1125.81 333.578C1125.82 333.766 1125.83 333.896 1125.83 333.969C1125.83 334.135 1125.83 334.396 1125.83 334.75C1125.84 335.094 1125.83 335.479 1125.81 335.906C1125.8 336.333 1125.77 336.771 1125.72 337.219C1125.67 337.656 1125.58 338.062 1125.47 338.438C1125.36 338.802 1125.22 339.104 1125.03 339.344C1124.84 339.573 1124.61 339.688 1124.33 339.688C1124.01 339.688 1123.7 339.609 1123.42 339.453C1123.14 339.297 1122.88 339.089 1122.62 338.828C1122.39 338.568 1122.16 338.281 1121.94 337.969C1121.72 337.646 1121.52 337.323 1121.33 337C1121.15 336.667 1120.98 336.354 1120.83 336.062C1120.68 335.76 1120.55 335.505 1120.44 335.297C1120.35 335.484 1120.28 335.719 1120.2 336C1120.14 336.281 1120.07 336.589 1119.98 336.922C1119.9 337.245 1119.81 337.573 1119.7 337.906C1119.6 338.229 1119.48 338.526 1119.34 338.797C1119.22 339.057 1119.07 339.271 1118.89 339.438C1118.72 339.604 1118.53 339.688 1118.31 339.688C1118.21 339.688 1118.11 339.693 1118.03 339.703C1117.95 339.703 1117.87 339.698 1117.8 339.688C1117.72 339.667 1117.66 339.63 1117.59 339.578C1117.53 339.526 1117.47 339.443 1117.42 339.328L1114.75 333.625C1114.75 333.615 1114.74 333.573 1114.73 333.5C1114.72 333.417 1114.72 333.354 1114.72 333.312ZM1133.52 337.984C1133.12 338.255 1132.78 338.5 1132.48 338.719C1132.2 338.927 1131.93 339.104 1131.66 339.25C1131.39 339.396 1131.09 339.505 1130.78 339.578C1130.48 339.651 1130.1 339.688 1129.66 339.688C1128.69 339.688 1127.97 339.432 1127.5 338.922C1127.03 338.401 1126.8 337.63 1126.8 336.609C1126.8 336.214 1126.85 335.802 1126.95 335.375C1127.06 334.948 1127.21 334.526 1127.41 334.109C1127.61 333.682 1127.86 333.281 1128.14 332.906C1128.42 332.521 1128.74 332.182 1129.09 331.891C1129.45 331.599 1129.82 331.37 1130.22 331.203C1130.62 331.026 1131.05 330.938 1131.5 330.938C1132.25 331.01 1132.84 331.198 1133.27 331.5C1133.69 331.792 1134.02 332.172 1134.23 332.641C1134.45 333.099 1134.6 333.615 1134.69 334.188C1134.77 334.75 1134.83 335.333 1134.88 335.938C1134.93 336.542 1134.99 337.146 1135.06 337.75C1135.14 338.354 1135.29 338.911 1135.52 339.422C1135.38 339.766 1135.25 340.005 1135.12 340.141C1135.01 340.286 1134.88 340.312 1134.73 340.219C1134.59 340.125 1134.42 339.896 1134.22 339.531C1134.03 339.167 1133.8 338.651 1133.52 337.984ZM1128.12 336.641C1128.12 337.234 1128.23 337.672 1128.45 337.953C1128.68 338.224 1129.08 338.359 1129.66 338.359C1130.08 338.359 1130.49 338.286 1130.88 338.141C1131.27 337.984 1131.61 337.776 1131.91 337.516C1132.2 337.245 1132.43 336.922 1132.61 336.547C1132.79 336.172 1132.88 335.755 1132.88 335.297C1132.88 335.109 1132.88 334.849 1132.89 334.516C1132.9 334.172 1132.88 333.833 1132.83 333.5C1132.78 333.167 1132.68 332.88 1132.53 332.641C1132.39 332.391 1132.17 332.266 1131.88 332.266C1131.33 332.266 1130.83 332.406 1130.38 332.688C1129.92 332.958 1129.52 333.307 1129.19 333.734C1128.85 334.161 1128.59 334.635 1128.41 335.156C1128.22 335.667 1128.12 336.161 1128.12 336.641ZM1136.5 333.438C1136.5 333.344 1136.51 333.25 1136.52 333.156C1136.53 333.052 1136.55 332.964 1136.58 332.891C1136.61 332.807 1136.66 332.74 1136.72 332.688C1136.79 332.635 1136.89 332.609 1137.02 332.609C1137.12 332.609 1137.23 332.693 1137.36 332.859C1137.49 333.016 1137.63 333.219 1137.77 333.469C1137.9 333.708 1138.03 333.974 1138.16 334.266C1138.29 334.557 1138.41 334.828 1138.5 335.078C1138.6 335.318 1138.69 335.526 1138.75 335.703C1138.81 335.88 1138.85 335.974 1138.86 335.984C1138.99 335.62 1139.15 335.224 1139.31 334.797C1139.48 334.37 1139.68 333.974 1139.92 333.609C1140.17 333.234 1140.46 332.922 1140.8 332.672C1141.14 332.422 1141.56 332.297 1142.05 332.297C1142.3 332.297 1142.53 332.339 1142.75 332.422C1142.98 332.495 1143.18 332.609 1143.34 332.766C1143.52 332.911 1143.66 333.089 1143.77 333.297C1143.87 333.505 1143.92 333.745 1143.92 334.016C1143.92 334.245 1143.83 334.406 1143.64 334.5C1143.46 334.594 1143.26 334.641 1143.03 334.641H1142.88L1142.2 333.969C1142.18 333.969 1142.17 333.964 1142.16 333.953C1142.14 333.953 1142.11 333.953 1142.09 333.953C1142.08 333.943 1142.07 333.938 1142.05 333.938C1141.68 333.938 1141.4 334.042 1141.19 334.25C1140.99 334.448 1140.84 334.698 1140.73 335C1140.63 335.292 1140.56 335.604 1140.53 335.938C1140.51 336.26 1140.5 336.557 1140.5 336.828C1140.5 337.036 1140.52 337.25 1140.56 337.469C1140.6 337.677 1140.65 337.885 1140.7 338.094C1140.76 338.292 1140.8 338.5 1140.84 338.719C1140.89 338.927 1140.91 339.146 1140.91 339.375C1140.91 339.812 1140.67 340.031 1140.2 340.031C1139.94 340.031 1139.67 339.896 1139.39 339.625C1139.11 339.344 1138.83 338.99 1138.55 338.562C1138.28 338.135 1138.02 337.667 1137.77 337.156C1137.52 336.635 1137.3 336.13 1137.11 335.641C1136.92 335.151 1136.77 334.708 1136.66 334.312C1136.55 333.917 1136.5 333.625 1136.5 333.438ZM1144.14 338.156C1144.14 337.552 1144.29 337.016 1144.59 336.547C1144.9 336.078 1145.27 335.672 1145.72 335.328C1146.17 334.974 1146.65 334.677 1147.17 334.438C1147.69 334.188 1148.18 333.984 1148.62 333.828C1149.07 333.661 1149.45 333.531 1149.75 333.438C1150.05 333.333 1150.2 333.25 1150.2 333.188C1150.2 332.823 1150.18 332.469 1150.14 332.125C1150.11 331.771 1150.07 331.417 1150.03 331.062C1149.99 330.708 1149.95 330.359 1149.91 330.016C1149.88 329.661 1149.86 329.312 1149.86 328.969V327.953C1150.29 327.797 1150.59 327.812 1150.77 328C1150.95 328.188 1150.98 328.51 1150.86 328.969C1150.9 329.198 1150.96 329.557 1151.03 330.047C1151.1 330.536 1151.18 331.089 1151.27 331.703C1151.36 332.318 1151.45 332.964 1151.55 333.641C1151.65 334.318 1151.74 334.969 1151.83 335.594C1151.92 336.208 1152 336.76 1152.06 337.25C1152.12 337.729 1152.17 338.089 1152.2 338.328C1152.21 338.38 1152.22 338.484 1152.23 338.641C1152.24 338.786 1152.25 338.948 1152.25 339.125C1152.26 339.292 1152.27 339.448 1152.27 339.594C1152.28 339.74 1152.28 339.844 1152.28 339.906C1151.89 339.906 1151.61 339.891 1151.47 339.859C1151.33 339.828 1151.24 339.766 1151.2 339.672C1151.17 339.578 1151.16 339.443 1151.16 339.266C1151.16 339.089 1151.1 338.844 1151 338.531C1150.61 338.833 1150.25 339.083 1149.91 339.281C1149.56 339.479 1149.22 339.641 1148.88 339.766C1148.53 339.88 1148.18 339.958 1147.83 340C1147.48 340.052 1147.11 340.078 1146.72 340.078C1146.39 340.078 1146.06 340.052 1145.75 340C1145.45 339.938 1145.18 339.833 1144.94 339.688C1144.7 339.542 1144.51 339.344 1144.36 339.094C1144.21 338.844 1144.14 338.531 1144.14 338.156ZM1145.5 337.828C1145.5 337.995 1145.54 338.13 1145.61 338.234C1145.68 338.339 1145.78 338.427 1145.89 338.5C1146.01 338.573 1146.12 338.625 1146.25 338.656C1146.39 338.677 1146.52 338.688 1146.64 338.688C1147.01 338.688 1147.4 338.62 1147.81 338.484C1148.24 338.339 1148.63 338.141 1148.98 337.891C1149.35 337.63 1149.65 337.323 1149.88 336.969C1150.11 336.615 1150.23 336.229 1150.23 335.812C1150.23 335.49 1150.18 335.266 1150.06 335.141C1149.95 335.016 1149.73 334.953 1149.41 334.953C1149.07 334.953 1148.68 335.031 1148.23 335.188C1147.8 335.344 1147.37 335.552 1146.95 335.812C1146.55 336.073 1146.2 336.38 1145.92 336.734C1145.64 337.078 1145.5 337.443 1145.5 337.828ZM1156.2 339.297C1156.37 339.182 1156.57 339.036 1156.8 338.859C1157.04 338.672 1157.28 338.474 1157.52 338.266C1157.76 338.057 1157.98 337.839 1158.19 337.609C1158.4 337.38 1158.56 337.161 1158.67 336.953C1158.8 336.734 1158.86 336.531 1158.86 336.344C1158.86 336.156 1158.77 336 1158.58 335.875C1158.24 335.875 1157.88 335.891 1157.48 335.922C1157.09 335.943 1156.69 335.953 1156.3 335.953C1155.9 335.943 1155.52 335.906 1155.14 335.844C1154.78 335.781 1154.45 335.667 1154.16 335.5C1153.86 335.333 1153.63 335.099 1153.45 334.797C1153.29 334.484 1153.2 334.089 1153.2 333.609C1153.2 333.047 1153.31 332.542 1153.52 332.094C1153.73 331.635 1154.02 331.234 1154.38 330.891C1154.73 330.536 1155.12 330.229 1155.56 329.969C1156.01 329.698 1156.46 329.469 1156.91 329.281C1157.18 329.354 1157.43 329.484 1157.66 329.672C1157.89 329.859 1158.08 330.068 1158.25 330.297C1158.18 330.526 1158.03 330.703 1157.81 330.828C1157.6 330.953 1157.36 331.062 1157.08 331.156C1156.81 331.25 1156.52 331.349 1156.22 331.453C1155.92 331.557 1155.64 331.698 1155.39 331.875C1155.15 332.042 1154.95 332.266 1154.78 332.547C1154.61 332.818 1154.53 333.177 1154.53 333.625C1154.53 333.958 1154.61 334.203 1154.78 334.359C1154.95 334.516 1155.17 334.625 1155.44 334.688C1155.71 334.74 1156.02 334.76 1156.36 334.75C1156.7 334.729 1157.05 334.703 1157.41 334.672C1157.77 334.641 1158.12 334.625 1158.47 334.625C1158.81 334.615 1159.12 334.656 1159.39 334.75C1159.66 334.833 1159.88 334.974 1160.03 335.172C1160.2 335.37 1160.28 335.661 1160.28 336.047C1160.28 336.214 1160.22 336.427 1160.11 336.688C1160.01 336.948 1159.86 337.229 1159.67 337.531C1159.49 337.823 1159.28 338.115 1159.03 338.406C1158.79 338.698 1158.54 338.964 1158.27 339.203C1158.01 339.432 1157.74 339.625 1157.47 339.781C1157.21 339.927 1156.96 340 1156.73 340C1156.52 340 1156.37 339.922 1156.3 339.766C1156.23 339.609 1156.2 339.453 1156.2 339.297Z" fill="black" fill-opacity="0.25"/>
<path fill-rule="evenodd" clip-rule="evenodd" d="M32.8526 70.6065C32.8526 72.5712 31.2599 74.1638 29.2953 74.1638C27.3306 74.1638 25.7379 72.5712 25.7379 70.6065C25.7379 68.6418 27.3306 67.0491 29.2953 67.0491C31.2599 67.0491 32.8526 68.6418 32.8526 70.6065ZM30.8208 77.036C33.734 76.3474 35.9018 73.7301 35.9018 70.6065C35.9018 66.9578 32.9439 64 29.2953 64C25.6466 64 22.6888 66.9578 22.6888 70.6065C22.6888 73.7308 24.8575 76.3485 27.7717 77.0364V85.8523C27.7717 88.0132 27.0287 89.4915 25.9839 90.4414C24.9156 91.4125 23.3982 91.9506 21.6734 91.9506C20.1214 91.9506 18.7796 90.9089 17.9993 89.4521C17.6168 88.7379 17.4256 88.0152 17.4093 87.4299C17.3926 86.8293 17.5558 86.5362 17.67 86.422C17.6835 86.4084 17.6968 86.3946 17.7098 86.3807L19.701 84.3894C20.2964 83.794 20.2964 82.8287 19.701 82.2333C19.1057 81.638 18.1403 81.638 17.545 82.2333L14.4958 85.2825L11.4467 88.3316C10.8513 88.927 10.8513 89.8923 11.4467 90.4877C12.042 91.0831 13.0074 91.0831 13.6027 90.4877L14.6867 89.4037C14.8447 89.9133 15.0558 90.4145 15.3115 90.8918C16.4366 92.9924 18.6516 94.9998 21.6734 94.9998C24.0141 94.9998 26.3081 94.2674 28.0349 92.6976C29.7851 91.1065 30.8208 88.7734 30.8208 85.8523V77.036Z" fill="#2D2D2D"/>
</svg>
